<?xml version="1.0" standalone="no"?>
<!DOCTYPE svg PUBLIC "-//W3C//DTD SVG 20010904//EN"
 "http://www.w3.org/TR/2001/REC-SVG-20010904/DTD/svg10.dtd">
<svg version="1.0" xmlns="http://www.w3.org/2000/svg"
 width="138.000000pt" height="138.000000pt" viewBox="0 0 138.000000 138.000000"
 preserveAspectRatio="xMidYMid meet">
<metadata>
Created by potrace 1.14, written by Peter Selinger 2001-2017
</metadata>
<g transform="translate(0.000000,138.000000) scale(0.100000,-0.100000)"
fill="#000000" stroke="none">
<path d="M14 903 c3 -10 30 -106 61 -213 31 -107 65 -223 76 -257 20 -62 21
-63 58 -63 40 0 38 -3 67 115 2 6 23 80 47 165 l44 155 12 -45 c15 -53 64
-227 92 -322 l20 -68 38 0 38 0 72 262 c40 144 75 268 78 275 4 11 -3 14 -32
11 l-38 -3 -57 -217 c-31 -120 -58 -220 -61 -222 -2 -2 -31 95 -65 217 l-60
222 -33 0 -33 0 -65 -225 c-35 -123 -66 -226 -68 -229 -3 -2 -5 4 -5 15 0 10
-27 114 -59 229 l-58 210 -38 3 c-32 3 -36 1 -31 -15z"/>
<path d="M904 893 c-76 -198 -194 -512 -194 -517 0 -3 15 -6 34 -6 36 0 33 -5
72 103 l17 47 118 0 c109 0 119 -2 119 -18 0 -10 3 -22 8 -26 4 -4 14 -28 23
-54 14 -43 18 -47 52 -50 20 -2 37 -1 37 1 0 3 -32 88 -71 189 -39 100 -85
222 -102 271 l-32 87 -35 0 c-30 0 -37 -5 -46 -27z m87 -174 c17 -46 35 -96
39 -111 l9 -28 -90 0 c-51 0 -89 4 -89 10 0 5 15 51 34 102 19 51 37 104 41
117 9 30 13 23 56 -90z"/>
<path d="M1249 429 c-16 -31 3 -69 36 -69 17 0 29 8 36 24 15 32 -4 66 -36 66
-15 0 -29 -9 -36 -21z"/>
</g>
</svg>
